<svg width="16" height="16" viewBox="0 0 16 16" fill="none" xmlns="http://www.w3.org/2000/svg">
<path d="M0.222443 5.77785C0.233038 4.87768 0.51405 4.00148 1.02898 3.26306C1.54392 2.52463 2.26898 1.95809 3.11002 1.63701C3.95105 1.31593 4.8692 1.25515 5.74522 1.46256C6.62124 1.66996 7.41466 2.13598 8.02244 2.80008C8.42273 2.37304 8.90321 2.02902 9.43645 1.78767C9.96969 1.54632 10.5452 1.41237 11.1303 1.39345C11.7153 1.37453 12.2983 1.47103 12.846 1.67743C13.3937 1.88383 13.8954 2.19608 14.3224 2.59637C14.7495 2.99666 15.0935 3.47714 15.3348 4.01038C15.5762 4.54362 15.7102 5.11917 15.7291 5.70418C15.748 6.28919 15.6515 6.8722 15.4451 7.41992C15.2387 7.96763 14.9264 8.46933 14.5261 8.89637L8.52615 14.8223C8.38736 14.9603 8.19962 15.0377 8.00392 15.0377C7.80823 15.0377 7.62049 14.9603 7.4817 14.8223L1.4817 8.89637C0.687105 8.05068 0.237873 6.93817 0.222443 5.77785ZM4.66689 2.81489C3.07429 2.81489 1.70392 4.18526 1.70392 5.77785C1.70392 6.59267 2.04466 7.30378 2.54096 7.85934L8.00022 13.2593L13.4817 7.85193C13.8885 7.43195 14.1624 6.90125 14.2689 6.32633C14.3754 5.7514 14.3098 5.15783 14.0805 4.61999C13.8511 4.08215 13.4681 3.62397 12.9794 3.30286C12.4908 2.98176 11.9183 2.81201 11.3336 2.81489C10.2224 2.8223 9.19281 3.47415 8.64466 4.44452C8.57856 4.56072 8.48225 4.65687 8.36593 4.72277C8.24961 4.78867 8.11762 4.82186 7.98397 4.81882C7.85031 4.81579 7.71997 4.77663 7.60677 4.70552C7.49356 4.6344 7.40171 4.53398 7.34096 4.41489C7.08919 3.92503 6.70523 3.5155 6.2326 3.23271C5.75997 2.94992 5.21757 2.80518 4.66689 2.81489Z" fill="black"/>
</svg>
