<svg width="24" height="24" viewBox="0 0 24 24" fill="none" xmlns="http://www.w3.org/2000/svg">
<path d="M8.36208 20.573C11.3236 20.573 13.7243 18.1722 13.7243 15.2107C13.7243 12.2493 11.3236 9.84851 8.36208 9.84851C5.4006 9.84851 2.99985 12.2493 2.99985 15.2107C2.99985 18.1722 5.4006 20.573 8.36208 20.573Z" fill="#04E061"/>
<path d="M17.6626 19.8972C19.4519 19.8972 20.9024 18.4467 20.9024 16.6574C20.9024 14.8681 19.4519 13.4176 17.6626 13.4176C15.8734 13.4176 14.4229 14.8681 14.4229 16.6574C14.4229 18.4467 15.8734 19.8972 17.6626 19.8972Z" fill="#FF4053"/>
<path d="M9.38718 9.15266C10.4946 9.15266 11.3924 8.25489 11.3924 7.14744C11.3924 6.03998 10.4946 5.14221 9.38718 5.14221C8.27972 5.14221 7.38195 6.03998 7.38195 7.14744C7.38195 8.25489 8.27972 9.15266 9.38718 9.15266Z" fill="#965EEB"/>
<path d="M16.4026 12.7192C18.8103 12.7192 20.7622 10.7674 20.7622 8.35962C20.7622 5.95187 18.8103 4 16.4026 4C13.9948 4 12.043 5.95187 12.043 8.35962C12.043 10.7674 13.9948 12.7192 16.4026 12.7192Z" fill="#00AAFF"/>
</svg>
