<svg width="32" height="32" viewBox="0 0 32 32" fill="none" xmlns="http://www.w3.org/2000/svg">
<path d="M12.2236 24.3789C15.3825 24.3789 17.9433 21.8181 17.9433 18.6592C17.9433 15.5003 15.3825 12.9395 12.2236 12.9395C9.06471 12.9395 6.50391 15.5003 6.50391 18.6592C6.50391 21.8181 9.06471 24.3789 12.2236 24.3789Z" fill="#04E061"/>
<path d="M22.1443 23.658C24.0528 23.658 25.6 22.1108 25.6 20.2022C25.6 18.2937 24.0528 16.7465 22.1443 16.7465C20.2357 16.7465 18.6885 18.2937 18.6885 20.2022C18.6885 22.1108 20.2357 23.658 22.1443 23.658Z" fill="#FF4053"/>
<path d="M13.3176 12.1972C14.4989 12.1972 15.4565 11.2396 15.4565 10.0583C15.4565 8.87705 14.4989 7.91943 13.3176 7.91943C12.1363 7.91943 11.1787 8.87705 11.1787 10.0583C11.1787 11.2396 12.1363 12.1972 13.3176 12.1972Z" fill="#965EEB"/>
<path d="M20.8005 16.0016C23.3687 16.0016 25.4507 13.9196 25.4507 11.3513C25.4507 8.78304 23.3687 6.70105 20.8005 6.70105C18.2322 6.70105 16.1502 8.78304 16.1502 11.3513C16.1502 13.9196 18.2322 16.0016 20.8005 16.0016Z" fill="#00AAFF"/>
</svg>
