<svg width="32" height="32" viewBox="0 0 32 32" fill="none" xmlns="http://www.w3.org/2000/svg">
<path d="M6.22223 9.33331C6.22223 8.10601 7.21715 7.11108 8.44445 7.11108H22.6667C23.894 7.11108 24.8889 8.10601 24.8889 9.33331V16C24.8889 16.4909 24.4909 16.8889 24 16.8889H7.11112C6.6202 16.8889 6.22223 16.4909 6.22223 16V9.33331Z" fill="#B8B8B8"/>
<path d="M6.22223 19.7333C6.22223 19.1442 6.69979 18.6666 7.2889 18.6666H18.4889C19.078 18.6666 19.5556 19.1442 19.5556 19.7333C19.5556 20.3224 19.078 20.8 18.4889 20.8H7.2889C6.69979 20.8 6.22223 20.3224 6.22223 19.7333Z" fill="#B8B8B8"/>
<path d="M7.2889 22.2222C6.69979 22.2222 6.22223 22.6998 6.22223 23.2889C6.22223 23.878 6.69979 24.3555 7.2889 24.3555H15.8222C16.4113 24.3555 16.8889 23.878 16.8889 23.2889C16.8889 22.6998 16.4113 22.2222 15.8222 22.2222H7.2889Z" fill="#B8B8B8"/>
<path d="M18.6667 23.2889C18.6667 22.6998 19.1442 22.2222 19.7333 22.2222H22.2222V19.8222C22.2222 19.2331 22.6998 18.7555 23.2889 18.7555C23.878 18.7555 24.3556 19.2331 24.3556 19.8222V22.2222H26.8444C27.4336 22.2222 27.9111 22.6998 27.9111 23.2889C27.9111 23.878 27.4336 24.3555 26.8444 24.3555H24.3556V26.9333C24.3556 27.5224 23.878 28 23.2889 28C22.6998 28 22.2222 27.5224 22.2222 26.9333V24.3555H19.7333C19.1442 24.3555 18.6667 23.878 18.6667 23.2889Z" fill="#B8B8B8"/>
</svg>
