<svg width="32" height="32" viewBox="0 0 32 32" fill="none" xmlns="http://www.w3.org/2000/svg">
<g clip-path="url(#clip0_677_5041)">
<path d="M16.4891 7.14887C17.7628 7.09804 18.9914 7.43762 19.995 8.22309C20.9981 9.00834 21.6806 10.1633 22.0018 11.5747C22.1641 12.288 21.7171 12.9983 21.0038 13.1606C20.2904 13.3228 19.5801 12.8759 19.4178 12.1625C19.2085 11.2428 18.8091 10.6589 18.3622 10.309C17.9155 9.95946 17.3241 9.76624 16.5946 9.79535C15.1048 9.85501 13.066 10.8643 11.2147 13.2211C11.2102 13.2271 11.2066 13.2338 11.202 13.2397C9.92878 14.8666 9.05115 16.7616 8.75672 18.3383C8.44206 20.0239 8.85423 20.7682 9.27527 21.0131C9.43656 21.1069 9.75045 21.1885 10.4501 20.7436C11.1464 20.3006 11.9321 19.4967 12.7089 18.478C13.472 17.4771 14.1661 16.3499 14.6952 15.3491C15.2421 14.3144 15.5543 13.5261 15.6307 13.185C15.6339 13.1712 15.638 13.1576 15.6415 13.144C15.6449 13.1308 15.6494 13.1179 15.6532 13.1049C15.662 13.0745 15.6707 13.0444 15.6815 13.0151C15.6849 13.0059 15.6887 12.9968 15.6923 12.9877C15.7037 12.9588 15.7161 12.9305 15.7294 12.9028C15.7385 12.8838 15.7487 12.8655 15.7587 12.8471C15.7697 12.8266 15.7808 12.8063 15.7928 12.7866C15.8018 12.7719 15.8117 12.7579 15.8212 12.7436C15.8357 12.7217 15.8503 12.7 15.8661 12.6791C15.8753 12.6669 15.8848 12.6549 15.8944 12.643C15.9135 12.6194 15.9334 12.5968 15.954 12.5747C15.9578 12.5706 15.9609 12.566 15.9647 12.562C15.9889 12.5366 16.0139 12.512 16.0399 12.4887C16.047 12.4824 16.0542 12.4763 16.0614 12.4702C16.0877 12.4477 16.1146 12.4261 16.1425 12.4057C16.1472 12.4022 16.1523 12.3993 16.1571 12.3959C16.1861 12.3754 16.2155 12.3555 16.246 12.3373C16.253 12.3332 16.2604 12.3297 16.2675 12.3256C16.2965 12.309 16.326 12.2931 16.3563 12.2788C16.3663 12.274 16.3765 12.2696 16.3866 12.2651C16.4166 12.2517 16.4474 12.2401 16.4784 12.2289C16.4872 12.2258 16.4959 12.2222 16.5048 12.2192C16.534 12.2094 16.5636 12.2006 16.5936 12.1928C16.6059 12.1896 16.6183 12.1868 16.6307 12.184C16.6617 12.177 16.6929 12.1703 16.7245 12.1655C16.7329 12.1642 16.7414 12.1637 16.7499 12.1625C16.7857 12.1578 16.8218 12.1546 16.8583 12.1528C16.8648 12.1525 16.8713 12.153 16.8778 12.1528C16.9147 12.1515 16.9518 12.1509 16.9891 12.1528C16.9966 12.1532 17.0041 12.1542 17.0116 12.1547C17.0499 12.1573 17.0883 12.1614 17.1268 12.1674C17.1291 12.1678 17.1314 12.168 17.1337 12.1684C17.1369 12.1689 17.1402 12.1698 17.1434 12.1704C17.1664 12.1743 17.1898 12.1769 17.2128 12.1821C17.2239 12.1846 17.235 12.1881 17.246 12.1909C17.2662 12.1959 17.2858 12.2025 17.3055 12.2084C17.3263 12.2147 17.3469 12.2208 17.3671 12.228C17.3862 12.2347 17.4051 12.2419 17.4237 12.2495C17.4492 12.2598 17.4743 12.2708 17.4989 12.2827C17.5128 12.2894 17.5263 12.297 17.5399 12.3041C17.5604 12.3149 17.5807 12.3256 17.6005 12.3373C17.6241 12.3514 17.6472 12.3659 17.6698 12.3813C17.6816 12.3894 17.6935 12.3973 17.705 12.4057C17.7297 12.4238 17.7529 12.4437 17.7762 12.4633C17.7837 12.4696 17.7914 12.4754 17.7987 12.4819C17.824 12.5042 17.8475 12.5281 17.871 12.5522C17.8771 12.5585 17.8836 12.5643 17.8895 12.5707C17.9113 12.594 17.932 12.6182 17.952 12.643C17.9606 12.6537 17.9692 12.6643 17.9774 12.6752C17.9944 12.6976 18.0107 12.7202 18.0262 12.7436C18.0327 12.7534 18.0396 12.7629 18.0458 12.7729C18.061 12.7971 18.0751 12.8219 18.0887 12.8471C18.0957 12.8601 18.1027 12.873 18.1093 12.8862C18.1428 12.9534 18.1705 13.0236 18.1923 13.0961C18.1949 13.1049 18.1976 13.1137 18.2001 13.1225C18.2089 13.1543 18.2161 13.1866 18.2225 13.2192C18.2245 13.2293 18.2266 13.2393 18.2284 13.2495C18.2333 13.2776 18.2371 13.3058 18.2401 13.3344C18.2416 13.3484 18.243 13.3624 18.244 13.3764C18.2467 13.4117 18.2472 13.4471 18.247 13.4829C18.2469 13.4916 18.2472 13.5004 18.247 13.5092C18.2462 13.5365 18.2445 13.5638 18.2421 13.5913C18.2404 13.6098 18.2386 13.6283 18.2362 13.6469C18.2345 13.6597 18.2344 13.6732 18.2323 13.686C17.9069 15.7183 18.2796 16.8343 18.6776 17.3364C19.0135 17.7597 19.5161 17.9376 20.2186 17.7231L20.2216 17.7221C20.8208 17.5385 21.5143 17.0115 22.1815 15.9545C22.8441 14.9048 23.419 13.4241 23.8055 11.5414C23.9528 10.8249 24.6534 10.3631 25.37 10.5102C26.0864 10.6576 26.5474 11.3582 26.4003 12.0747C25.9694 14.1729 25.3006 15.9763 24.4218 17.3686C23.5525 18.7456 22.4136 19.814 21.0136 20.2485C21.0063 20.2508 20.9994 20.255 20.9921 20.2573C19.4043 20.7419 17.7109 20.381 16.6014 18.9819C16.4128 18.7439 16.2481 18.4835 16.1063 18.2036C15.7124 18.8371 15.2787 19.478 14.8163 20.0844C13.9639 21.2023 12.9541 22.2916 11.872 22.9799C10.793 23.6661 9.34442 24.1182 7.94324 23.3032C5.98287 22.1628 5.78784 19.8054 6.15222 17.853C6.53698 15.7919 7.62368 13.5115 9.11414 11.6069C11.276 8.84481 13.9763 7.24929 16.4891 7.14887Z" fill="#B8B8B8"/>
</g>
<defs>
<clipPath id="clip0_677_5041">
<rect width="21.3333" height="21.3333" fill="white" transform="translate(5.54675 5.33337)"/>
</clipPath>
</defs>
</svg>
