<svg width="30" height="30" viewBox="0 0 30 30" fill="none" xmlns="http://www.w3.org/2000/svg">
<g clip-path="url(#clip0_726_3651)">
<path d="M6.24999 15C6.24999 16.1491 6.47677 17.2868 6.91649 18.3484C7.35622 19.4099 7.99975 20.3752 8.81224 21.1877C9.62474 22.0002 10.59 22.6438 11.6516 23.0835C12.7132 23.5232 13.8509 23.75 15 23.75V19.9426L22.5 25L15 30V26.25C13.5226 26.25 12.0595 25.9584 10.6946 25.3931C9.32981 24.8277 8.08922 23.9999 7.04467 22.9553C6.00011 21.9108 5.17229 20.6702 4.60693 19.3054C4.04156 17.9405 3.74999 16.4774 3.74999 15H6.24999Z" fill="white"/>
<path d="M15 3.75C16.4774 3.75 17.9405 4.04157 19.3054 4.60693C20.6702 5.17229 21.9107 6.00012 22.9553 7.04467C23.9999 8.08923 24.8277 9.32982 25.393 10.6946C25.9584 12.0595 26.25 13.5226 26.25 15H23.75C23.75 13.8509 23.5232 12.7132 23.0835 11.6516C22.6437 10.59 22.0002 9.62474 21.1877 8.81225C20.3752 7.99976 19.4099 7.35623 18.3484 6.9165C17.2868 6.47677 16.1491 6.25 15 6.25V10.0574L7.49999 5L15 0V3.75Z" fill="white"/>
</g>
<defs>
<clipPath id="clip0_726_3651">
<rect width="29.5391" height="29.5391" fill="white" transform="scale(1.0156)"/>
</clipPath>
</defs>
</svg>
