<svg preserveAspectRatio="none" width="100%" height="100%" overflow="visible" style="display: block;" viewBox="0 0 12.7778 13.3333" fill="none" xmlns="http://www.w3.org/2000/svg">
<g id="Icon">
<path d="M2.77778 7.77778C2.89425 7.77778 2.99475 7.85921 3.01921 7.97309L3.14345 8.5498C3.32 9.37157 3.96176 10.0133 4.78353 10.1899L5.36024 10.3141C5.47412 10.3386 5.55556 10.4391 5.55556 10.5556C5.55556 10.672 5.47412 10.7725 5.36024 10.797L4.78353 10.9212C3.96176 11.0978 3.32 11.7395 3.14345 12.5613L3.01921 13.138C2.99475 13.2519 2.89425 13.3333 2.77778 13.3333C2.6613 13.3333 2.5608 13.2519 2.53635 13.138L2.41211 12.5613C2.23556 11.7395 1.59379 11.0978 0.772027 10.9212L0.195312 10.797C0.081434 10.7725 0 10.672 0 10.5556C2.31246e-08 10.4391 0.081434 10.3386 0.195312 10.3141L0.772027 10.1899C1.59379 10.0133 2.23556 9.37157 2.41211 8.5498L2.53635 7.97309C2.5608 7.85921 2.6613 7.77778 2.77778 7.77778Z" fill="url(#paint0_linear_0_6)"/>
<path fill-rule="evenodd" clip-rule="evenodd" d="M7.80924 0C8.00047 0 8.16569 0.133673 8.20584 0.320638L8.43533 1.38943C8.75305 2.86889 9.90889 4.02473 11.3883 4.34245L12.4571 4.57194C12.6441 4.61209 12.7778 4.77731 12.7778 4.96853V5.03147C12.7778 5.22269 12.6441 5.38791 12.4571 5.42806L11.3883 5.65755C9.90889 5.97527 8.75305 7.13111 8.43533 8.61057L8.20584 9.67936C8.16569 9.86633 8.00047 10 7.80924 10H7.74631C7.55508 10 7.38987 9.86633 7.34972 9.67936L7.12023 8.61057C6.80251 7.13111 5.64666 5.97527 4.16721 5.65755L3.09842 5.42806C2.91145 5.38791 2.77778 5.22269 2.77778 5.03147V4.96853C2.77778 4.77731 2.91145 4.61209 3.09842 4.57194L4.16721 4.34245C5.64666 4.02473 6.80251 2.86889 7.12023 1.38943L7.34972 0.320638C7.38987 0.133673 7.55508 0 7.74631 0H7.80924Z" fill="url(#paint1_linear_0_6)"/>
</g>
<defs>
<linearGradient id="paint0_linear_0_6" x1="-7.59961" y1="7.42029" x2="19.6323" y2="7.42029" gradientUnits="userSpaceOnUse">
<stop stop-color="#04E061"/>
<stop offset="0.350469" stop-color="#00AAFF"/>
<stop offset="0.690144" stop-color="#965EEB"/>
<stop offset="0.947195" stop-color="#FF4053"/>
</linearGradient>
<linearGradient id="paint1_linear_0_6" x1="-7.59961" y1="7.42029" x2="19.6323" y2="7.42029" gradientUnits="userSpaceOnUse">
<stop stop-color="#04E061"/>
<stop offset="0.350469" stop-color="#00AAFF"/>
<stop offset="0.690144" stop-color="#965EEB"/>
<stop offset="0.947195" stop-color="#FF4053"/>
</linearGradient>
</defs>
</svg>
