<svg width="32" height="32" viewBox="0 0 32 32" fill="none" xmlns="http://www.w3.org/2000/svg">
<g clip-path="url(#clip0_726_3630)">
<path d="M1.59961 9.59998V6.39998C1.59961 3.74901 3.74864 1.59998 6.39961 1.59998H9.59961" stroke="black" stroke-width="2.4" stroke-linecap="square" stroke-linejoin="round"/>
<path d="M1.59961 22.4V25.6C1.59961 28.251 3.74864 30.4 6.39961 30.4H9.59961" stroke="black" stroke-width="2.4" stroke-linejoin="round"/>
<path d="M30.4004 9.59998V6.39998C30.4004 3.74901 28.2514 1.59998 25.6004 1.59998H22.4004" stroke="black" stroke-width="2.4" stroke-linejoin="round"/>
<path d="M30.4004 22.4V25.6C30.4004 28.251 28.2514 30.4 25.6004 30.4H22.4004" stroke="black" stroke-width="2.4" stroke-linejoin="round"/>
<g clip-path="url(#clip1_726_3630)">
<path d="M14.4006 8.04993C11.155 8.44462 8.64081 11.2086 8.64081 14.5607C8.64103 18.1834 11.5776 21.1201 15.2004 21.1202C18.8232 21.1202 21.7607 18.1835 21.7609 14.5607C21.7609 14.5073 21.7583 14.4536 21.757 14.4005H23.9963C23.9972 14.4537 24.0002 14.5073 24.0002 14.5607C24.0001 16.5868 23.316 18.4531 22.1652 19.9406L26.3928 24.1681L24.8088 25.7521L20.5812 21.5245C19.0937 22.6755 17.2267 23.3605 15.2004 23.3605C10.3405 23.3604 6.4008 19.4205 6.40057 14.5607C6.40057 9.97029 9.91545 6.20223 14.4006 5.79797V8.04993Z" fill="black"/>
<path d="M16.3146 9.12051C18.2023 8.48484 19.6851 7.00186 20.3209 5.11426C20.9567 7.00186 22.4395 8.48484 24.3271 9.12051C22.4394 9.75627 20.9566 11.239 20.3209 13.1268C19.6852 11.239 18.2024 9.75627 16.3146 9.12051Z" fill="black"/>
</g>
</g>
<defs>
<clipPath id="clip0_726_3630">
<rect width="32" height="32" fill="white"/>
</clipPath>
<clipPath id="clip1_726_3630">
<rect width="22.4" height="32" fill="white" transform="translate(4.79999 -1.59998)"/>
</clipPath>
</defs>
</svg>
